<svg width="108" height="187" viewBox="0 0 108 187" fill="none" xmlns="http://www.w3.org/2000/svg">
<g filter="url(#filter0_d_311_473)">
<ellipse cx="53.9741" cy="181.512" rx="50.6606" ry="1.45636" fill="#C4C4C4" fill-opacity="0.01"/>
</g>
<g filter="url(#filter1_d_311_473)">
<path d="M23.2293 182.136H84.7186C86.5405 182.136 88.2779 181.774 89.8629 181.119C89.8629 181.119 68.5376 170.381 54.078 170.485C39.6184 170.589 18.085 181.119 18.085 181.119C19.67 181.774 21.4074 182.136 23.2293 182.136Z" fill="#C4C4C4" fill-opacity="0.01"/>
</g>
<g filter="url(#filter2_d_311_473)">
<path d="M9.76294 16.8861C9.76294 9.4488 15.7921 3.41968 23.2293 3.41968H84.7186C92.1559 3.41968 98.185 9.44879 98.185 16.8861V168.67C98.185 176.107 92.1559 182.136 84.7186 182.136H23.2293C15.792 182.136 9.76294 176.107 9.76294 168.67V16.8861Z" fill="#F9FAFA"/>
</g>
<g filter="url(#filter3_i_311_473)">
<path d="M9.76294 16.8861C9.76294 9.4488 15.7921 3.41968 23.2293 3.41968H84.7186C92.1559 3.41968 98.185 9.44879 98.185 16.8861V168.67C98.185 176.107 92.1559 182.136 84.7186 182.136H23.2293C15.792 182.136 9.76294 176.107 9.76294 168.67V16.8861Z" fill="#F9FAFA"/>
</g>
<path d="M14.8692 92.7846C14.8685 92.7799 14.8682 92.7751 14.8682 92.7702C14.8682 69.459 14.8685 46.148 14.8692 22.8371C14.8692 22.2329 14.867 21.6283 14.8648 21.0234C14.8586 19.3397 14.8524 17.6541 14.894 15.9703L14.894 15.9703C14.9838 12.343 17.713 9.12987 21.2617 8.3757C21.8977 8.23923 22.5464 8.17008 23.197 8.16941L23.1971 8.16941C25.7536 8.16991 28.3098 8.16925 30.8657 8.16744C31.2555 8.16644 31.636 8.23278 31.9289 8.56301L31.9289 8.56308C32.1455 8.80773 32.2209 9.09663 32.2267 9.40345L32.2267 9.40359M14.8692 92.7846L32.2613 11.0266C32.1446 10.4997 32.1338 9.95925 32.123 9.42105L32.1227 9.40553L32.2267 9.40359M14.8692 92.7846V117.661C14.8684 134.698 14.8687 151.738 14.8702 168.778C14.8702 169.337 14.8794 169.903 14.9776 170.47L14.9776 170.47C15.6507 174.347 18.879 177.159 22.8152 177.284M14.8692 92.7846L85.1108 8.2932L85.1132 8.1892C88.7713 8.27425 91.7652 10.635 92.7946 14.1372L92.7946 14.1373C92.9874 14.7952 93.0844 15.4774 93.0824 16.1629M32.2267 9.40359L32.2269 9.41402C32.2378 9.95567 32.2484 10.4874 32.3628 11.0041L32.2267 9.40359ZM22.8152 177.284C22.8151 177.284 22.8151 177.284 22.815 177.284L22.8185 177.18L22.8152 177.284ZM22.8152 177.284C23.3811 177.303 23.9484 177.302 24.5132 177.3C24.6742 177.299 24.835 177.299 24.9955 177.299H84.5149H84.5196C85.0604 177.299 85.6132 177.299 86.1609 177.198M86.1609 177.198C89.2689 176.635 91.4156 174.886 92.5904 171.958L92.4939 171.92M86.1609 177.198L86.1421 177.096M86.1609 177.198C86.1608 177.198 86.1607 177.198 86.1606 177.198L86.1421 177.096M92.4939 171.92L92.5904 171.958C93.0298 170.862 93.0878 169.719 93.0878 168.576C93.0845 123.269 93.0829 77.9631 93.0829 32.6585C93.0792 27.1604 93.0791 21.6619 93.0824 16.1629M92.4939 171.92C91.3324 174.814 89.2151 176.54 86.1421 177.096M92.4939 171.92L86.1421 177.096M93.0824 16.1629C93.0824 16.1628 93.0824 16.1627 93.0824 16.1626L92.9783 16.1625L93.0824 16.1629Z" stroke="#E1E1E1" stroke-width="0.208052" stroke-linejoin="round"/>
<path opacity="0.4" fill-rule="evenodd" clip-rule="evenodd" d="M47.8058 10.4259C47.8057 10.0862 48.0856 9.81067 48.4309 9.81058L56.1319 9.80853C56.4772 9.80843 56.7571 10.0838 56.7572 10.4236L56.7573 10.6302C56.7573 10.9699 56.4775 11.2454 56.1322 11.2455L48.4312 11.2476C48.0859 11.2477 47.8059 10.9723 47.8059 10.6326L47.8058 10.4259Z" fill="#C8C8C8"/>
<path opacity="0.546196" fill-rule="evenodd" clip-rule="evenodd" d="M58.8388 10.5265C58.8387 10.1306 59.1648 9.80793 59.5672 9.80782C59.9696 9.80771 60.2959 10.1302 60.296 10.5261C60.2961 10.9221 59.97 11.2447 59.5676 11.2448C59.1652 11.2449 58.8389 10.9225 58.8388 10.5265Z" fill="#C8C8C8"/>
<defs>
<filter id="filter0_d_311_473" x="0.816855" y="177.559" width="106.315" height="7.90596" filterUnits="userSpaceOnUse" color-interpolation-filters="sRGB">
<feFlood flood-opacity="0" result="BackgroundImageFix"/>
<feColorMatrix in="SourceAlpha" type="matrix" values="0 0 0 0 0 0 0 0 0 0 0 0 0 0 0 0 0 0 127 0" result="hardAlpha"/>
<feOffset/>
<feGaussianBlur stdDeviation="1.24831"/>
<feColorMatrix type="matrix" values="0 0 0 0 0 0 0 0 0 0 0 0 0 0 0 0 0 0 0.08 0"/>
<feBlend mode="normal" in2="BackgroundImageFix" result="effect1_dropShadow_311_473"/>
<feBlend mode="normal" in="SourceGraphic" in2="effect1_dropShadow_311_473" result="shape"/>
</filter>
<filter id="filter1_d_311_473" x="16.2125" y="168.612" width="75.523" height="15.3966" filterUnits="userSpaceOnUse" color-interpolation-filters="sRGB">
<feFlood flood-opacity="0" result="BackgroundImageFix"/>
<feColorMatrix in="SourceAlpha" type="matrix" values="0 0 0 0 0 0 0 0 0 0 0 0 0 0 0 0 0 0 127 0" result="hardAlpha"/>
<feOffset/>
<feGaussianBlur stdDeviation="0.936233"/>
<feColorMatrix type="matrix" values="0 0 0 0 0 0 0 0 0 0 0 0 0 0 0 0 0 0 0.33 0"/>
<feBlend mode="normal" in2="BackgroundImageFix" result="effect1_dropShadow_311_473"/>
<feBlend mode="normal" in="SourceGraphic" in2="effect1_dropShadow_311_473" result="shape"/>
</filter>
<filter id="filter2_d_311_473" x="6.11248" y="0.919745" width="95.723" height="186.017" filterUnits="userSpaceOnUse" color-interpolation-filters="sRGB">
<feFlood flood-opacity="0" result="BackgroundImageFix"/>
<feColorMatrix in="SourceAlpha" type="matrix" values="0 0 0 0 0 0 0 0 0 0 0 0 0 0 0 0 0 0 127 0" result="hardAlpha"/>
<feOffset dy="1.15053"/>
<feGaussianBlur stdDeviation="1.82523"/>
<feColorMatrix type="matrix" values="0 0 0 0 0 0 0 0 0 0 0 0 0 0 0 0 0 0 0.03 0"/>
<feBlend mode="normal" in2="BackgroundImageFix" result="effect1_dropShadow_311_473"/>
<feBlend mode="normal" in="SourceGraphic" in2="effect1_dropShadow_311_473" result="shape"/>
</filter>
<filter id="filter3_i_311_473" x="9.76294" y="2.32454" width="88.4221" height="179.812" filterUnits="userSpaceOnUse" color-interpolation-filters="sRGB">
<feFlood flood-opacity="0" result="BackgroundImageFix"/>
<feBlend mode="normal" in="SourceGraphic" in2="BackgroundImageFix" result="shape"/>
<feColorMatrix in="SourceAlpha" type="matrix" values="0 0 0 0 0 0 0 0 0 0 0 0 0 0 0 0 0 0 127 0" result="hardAlpha"/>
<feOffset dy="-1.09514"/>
<feGaussianBlur stdDeviation="1.84029"/>
<feComposite in2="hardAlpha" operator="arithmetic" k2="-1" k3="1"/>
<feColorMatrix type="matrix" values="0 0 0 0 0 0 0 0 0 0 0 0 0 0 0 0 0 0 0.12 0"/>
<feBlend mode="normal" in2="shape" result="effect1_innerShadow_311_473"/>
</filter>
</defs>
</svg>
