<svg width="245" height="428" viewBox="0 0 245 428" fill="none" xmlns="http://www.w3.org/2000/svg">
<g filter="url(#filter0_d_311_502)">
<ellipse cx="122.6" cy="416.138" rx="116.931" ry="3.36146" fill="#C4C4C4" fill-opacity="0.01"/>
</g>
<g filter="url(#filter1_d_311_502)">
<path d="M51.6372 417.579H193.562C197.767 417.579 201.777 416.744 205.435 415.23C205.435 415.23 156.214 390.447 122.84 390.687C89.4651 390.927 39.7634 415.23 39.7634 415.23C43.4218 416.744 47.432 417.579 51.6372 417.579Z" fill="#C4C4C4" fill-opacity="0.01"/>
</g>
<g filter="url(#filter2_d_311_502)">
<path d="M20.5554 36.1621C20.5554 18.996 34.4713 5.08008 51.6375 5.08008H193.562C210.728 5.08008 224.644 18.996 224.644 36.1621V386.497C224.644 403.663 210.728 417.579 193.562 417.579H51.6374C34.4713 417.579 20.5554 403.663 20.5554 386.497V36.1621Z" fill="#F9FAFA"/>
</g>
<g filter="url(#filter3_i_311_502)">
<path d="M20.5554 36.1621C20.5554 18.996 34.4713 5.08008 51.6375 5.08008H193.562C210.728 5.08008 224.644 18.996 224.644 36.1621V386.497C224.644 403.663 210.728 417.579 193.562 417.579H51.6374C34.4713 417.579 20.5554 403.663 20.5554 386.497V36.1621Z" fill="#F9FAFA"/>
</g>
<path d="M32.3757 211.342C32.3742 211.332 32.3734 211.322 32.3734 211.312C32.3734 157.507 32.3741 103.702 32.3757 49.8977C32.3757 48.5029 32.3705 47.1072 32.3654 45.711C32.3512 41.825 32.337 37.935 32.4328 34.0493L32.4328 34.0493C32.6397 25.6934 38.9274 18.2906 47.1028 16.5532C48.5685 16.2387 50.0633 16.0793 51.5625 16.0778L51.5627 16.0778C57.4634 16.0789 63.3633 16.0774 69.2624 16.0732C69.2625 16.0732 69.2626 16.0732 69.2626 16.0732L69.2628 16.2786C70.1377 16.2763 70.9293 16.4256 71.537 17.1108L32.3757 211.342ZM32.3757 211.342V268.763C32.3738 308.087 32.3745 347.415 32.3779 386.747C32.3779 388.036 32.3994 389.34 32.6254 390.647L32.6254 390.647C34.1761 399.578 41.6137 406.057 50.6819 406.345C51.9877 406.389 53.2966 406.385 54.6003 406.381C54.9719 406.38 55.343 406.379 55.7136 406.379H193.091H193.1C194.35 406.379 195.623 406.379 196.884 406.148C196.884 406.148 196.884 406.148 196.884 406.148L196.847 405.946L32.3757 211.342ZM194.467 16.3287L194.471 16.1234C189.764 16.0147 185.053 16.0407 180.345 16.0667C178.733 16.0756 177.121 16.0846 175.51 16.088L175.51 16.2934L175.51 16.088C174.696 16.0898 174.021 16.334 173.535 16.7996C173.049 17.2645 172.772 17.9297 172.714 18.7341C172.687 19.0991 172.676 19.4641 172.666 19.8253C172.665 19.8756 172.664 19.9258 172.663 19.976C172.655 20.2871 172.647 20.5949 172.631 20.9022L172.631 20.9031C172.412 25.4956 169.098 29.3545 164.584 30.2733L164.583 30.2736C163.653 30.4679 162.717 30.4678 161.754 30.4676L161.67 30.4676C142.485 30.4687 123.3 30.4687 104.115 30.4676C102.019 30.4673 99.9239 30.4702 97.8287 30.473C92.6533 30.4802 87.479 30.4873 82.3053 30.4459L82.3053 30.4459C77.6173 30.4091 73.6945 27.1526 72.6844 22.5934C72.4195 21.3973 72.3949 20.1672 72.3699 18.9183L72.3694 18.8923L212.626 34.4921L212.831 34.4927C212.836 32.9139 212.613 31.3427 212.169 29.8274L212.169 29.8272C209.797 21.7578 202.899 16.3194 194.472 16.1234L194.467 16.3287ZM194.467 16.3287C202.803 16.5225 209.624 21.899 211.972 29.8852L194.467 16.3287ZM164.625 30.4746C169.231 29.537 172.612 25.5995 172.836 20.9129L82.3037 30.6513C87.4784 30.6927 92.6543 30.6855 97.8301 30.6784C99.925 30.6755 102.02 30.6726 104.115 30.6729C123.3 30.6741 142.485 30.6741 161.67 30.6729L161.762 30.6729C162.719 30.6732 163.674 30.6734 164.625 30.4746Z" stroke="#E1E1E1" stroke-width="0.410683" stroke-linejoin="round"/>
<path opacity="0.4" fill-rule="evenodd" clip-rule="evenodd" d="M108.364 21.0404C108.363 20.3697 108.915 19.826 109.596 19.826L127.785 19.8257C128.466 19.8257 129.02 20.3694 129.021 21.0401L129.023 21.9321C129.024 22.6028 128.472 23.1465 127.791 23.1465L109.602 23.1468C108.921 23.1468 108.367 22.6031 108.366 21.9324L108.364 21.0404Z" fill="#C8C8C8"/>
<path opacity="0.546196" fill-rule="evenodd" clip-rule="evenodd" d="M133.831 21.2408C133.829 20.4583 134.472 19.824 135.268 19.824L135.747 19.824C136.542 19.824 137.188 20.4583 137.189 21.2407L137.19 21.7247C137.192 22.5072 136.548 23.1415 135.753 23.1415L135.274 23.1415C134.479 23.1415 133.833 22.5072 133.831 21.7248L133.831 21.2408Z" fill="#C8C8C8"/>
<defs>
<filter id="filter0_d_311_502" x="0.740746" y="407.849" width="243.718" height="16.5793" filterUnits="userSpaceOnUse" color-interpolation-filters="sRGB">
<feFlood flood-opacity="0" result="BackgroundImageFix"/>
<feColorMatrix in="SourceAlpha" type="matrix" values="0 0 0 0 0 0 0 0 0 0 0 0 0 0 0 0 0 0 127 0" result="hardAlpha"/>
<feOffset/>
<feGaussianBlur stdDeviation="2.4641"/>
<feColorMatrix type="matrix" values="0 0 0 0 0 0 0 0 0 0 0 0 0 0 0 0 0 0 0.08 0"/>
<feBlend mode="normal" in2="BackgroundImageFix" result="effect1_dropShadow_311_502"/>
<feBlend mode="normal" in="SourceGraphic" in2="effect1_dropShadow_311_502" result="shape"/>
</filter>
<filter id="filter1_d_311_502" x="36.0673" y="386.989" width="173.064" height="34.2857" filterUnits="userSpaceOnUse" color-interpolation-filters="sRGB">
<feFlood flood-opacity="0" result="BackgroundImageFix"/>
<feColorMatrix in="SourceAlpha" type="matrix" values="0 0 0 0 0 0 0 0 0 0 0 0 0 0 0 0 0 0 127 0" result="hardAlpha"/>
<feOffset/>
<feGaussianBlur stdDeviation="1.84807"/>
<feColorMatrix type="matrix" values="0 0 0 0 0 0 0 0 0 0 0 0 0 0 0 0 0 0 0.33 0"/>
<feBlend mode="normal" in2="BackgroundImageFix" result="effect1_dropShadow_311_502"/>
<feBlend mode="normal" in="SourceGraphic" in2="effect1_dropShadow_311_502" result="shape"/>
</filter>
<filter id="filter2_d_311_502" x="13.3496" y="0.145341" width="218.5" height="426.91" filterUnits="userSpaceOnUse" color-interpolation-filters="sRGB">
<feFlood flood-opacity="0" result="BackgroundImageFix"/>
<feColorMatrix in="SourceAlpha" type="matrix" values="0 0 0 0 0 0 0 0 0 0 0 0 0 0 0 0 0 0 127 0" result="hardAlpha"/>
<feOffset dy="2.27108"/>
<feGaussianBlur stdDeviation="3.60291"/>
<feColorMatrix type="matrix" values="0 0 0 0 0 0 0 0 0 0 0 0 0 0 0 0 0 0 0.03 0"/>
<feBlend mode="normal" in2="BackgroundImageFix" result="effect1_dropShadow_311_502"/>
<feBlend mode="normal" in="SourceGraphic" in2="effect1_dropShadow_311_502" result="shape"/>
</filter>
<filter id="filter3_i_311_502" x="20.5554" y="2.91833" width="204.088" height="414.661" filterUnits="userSpaceOnUse" color-interpolation-filters="sRGB">
<feFlood flood-opacity="0" result="BackgroundImageFix"/>
<feBlend mode="normal" in="SourceGraphic" in2="BackgroundImageFix" result="shape"/>
<feColorMatrix in="SourceAlpha" type="matrix" values="0 0 0 0 0 0 0 0 0 0 0 0 0 0 0 0 0 0 127 0" result="hardAlpha"/>
<feOffset dy="-2.16174"/>
<feGaussianBlur stdDeviation="3.63263"/>
<feComposite in2="hardAlpha" operator="arithmetic" k2="-1" k3="1"/>
<feColorMatrix type="matrix" values="0 0 0 0 0 0 0 0 0 0 0 0 0 0 0 0 0 0 0.12 0"/>
<feBlend mode="normal" in2="shape" result="effect1_innerShadow_311_502"/>
</filter>
</defs>
</svg>
