<svg width="100" height="100" viewBox="0 0 100 100" fill="none" xmlns="http://www.w3.org/2000/svg">
<path d="M76.2682 71.6167H22.6848C18.5519 71.6167 14.5882 69.9749 11.6657 67.0524C8.7433 64.13 7.10149 60.1663 7.10149 56.0333V26.8667C7.07949 24.8043 7.46601 22.758 8.23878 20.8457C9.01154 18.9334 10.1553 17.1931 11.6039 15.725C13.0526 14.257 14.7776 13.0902 16.6795 12.2921C18.5813 11.4941 20.6223 11.0804 22.6848 11.075H76.2682C80.3977 11.086 84.355 12.7313 87.2751 15.6514C90.1952 18.5715 91.8405 22.5288 91.8515 26.6583V56.0333C91.8515 58.0798 91.4484 60.1062 90.6653 61.9968C89.8822 63.8875 88.7343 65.6054 87.2872 67.0524C85.8402 68.4995 84.1223 69.6473 82.2317 70.4305C80.341 71.2136 78.3146 71.6167 76.2682 71.6167V71.6167ZM22.6848 15.2417C19.6569 15.2417 16.7531 16.4445 14.612 18.5855C12.471 20.7266 11.2682 23.6305 11.2682 26.6583V56.0333C11.2682 59.0612 12.471 61.9651 14.612 64.1061C16.7531 66.2472 19.6569 67.45 22.6848 67.45H76.2682C79.2961 67.45 82.1999 66.2472 84.341 64.1061C86.482 61.9651 87.6848 59.0612 87.6848 56.0333V26.8667C87.7125 25.35 87.4377 23.843 86.8763 22.4337C86.315 21.0244 85.4784 19.7412 84.4155 18.6589C83.3526 17.5766 82.0847 16.7169 80.6858 16.1302C79.2869 15.5435 77.7851 15.2414 76.2682 15.2417H22.6848Z" fill="#FF4343"/>
<path d="M89.7673 55.7834H9.18398C8.63478 55.7727 8.11105 55.5498 7.72264 55.1614C7.33423 54.7729 7.11131 54.2492 7.10064 53.7C7.10064 53.1475 7.32014 52.6176 7.71084 52.2269C8.10154 51.8362 8.63144 51.6167 9.18398 51.6167H89.7673C90.3198 51.6167 90.8497 51.8362 91.2404 52.2269C91.6311 52.6176 91.8506 53.1475 91.8506 53.7C91.8506 54.2526 91.6311 54.7825 91.2404 55.1732C90.8497 55.5639 90.3198 55.7834 89.7673 55.7834Z" fill="#FF4343"/>
<path d="M49.4206 87.7417C48.8681 87.7417 48.3382 87.5222 47.9475 87.1315C47.5568 86.7408 47.3373 86.2109 47.3373 85.6584V69.5334C47.3373 68.9809 47.5568 68.451 47.9475 68.0603C48.3382 67.6695 48.8681 67.4501 49.4206 67.4501C49.9732 67.4501 50.5031 67.6695 50.8938 68.0603C51.2845 68.451 51.504 68.9809 51.504 69.5334V85.6584C51.504 86.2109 51.2845 86.7408 50.8938 87.1315C50.5031 87.5222 49.9732 87.7417 49.4206 87.7417Z" fill="#FF4343"/>
<path d="M73.4936 87.7418H25.1603C24.6078 87.7418 24.0779 87.5223 23.6872 87.1316C23.2965 86.7409 23.077 86.211 23.077 85.6584C23.077 85.1059 23.2965 84.576 23.6872 84.1853C24.0779 83.7946 24.6078 83.5751 25.1603 83.5751H73.4936C74.0462 83.5751 74.5761 83.7946 74.9668 84.1853C75.3575 84.576 75.577 85.1059 75.577 85.6584C75.577 86.211 75.3575 86.7409 74.9668 87.1316C74.5761 87.5223 74.0462 87.7418 73.4936 87.7418Z" fill="#FF4343"/>
</svg>
