<svg width="187" height="31" viewBox="0 0 187 31" fill="none" xmlns="http://www.w3.org/2000/svg">
<g clip-path="url(#clip0_8_2)">
<path d="M73.101 2.83255C73.101 2.08131 73.3994 1.36084 73.9306 0.829634C74.4619 0.298428 75.1823 0 75.9336 0C76.6848 0 77.4053 0.298428 77.9365 0.829634C78.4677 1.36084 78.7661 2.08131 78.7661 2.83255C78.737 3.56426 78.4258 4.25631 77.8978 4.76371C77.3697 5.27112 76.6659 5.5545 75.9336 5.5545C75.2013 5.5545 74.4974 5.27112 73.9694 4.76371C73.4413 4.25631 73.1302 3.56426 73.101 2.83255" fill="#273B7D"/>
<path d="M117.795 21.7243C117.796 21.164 117.963 20.6167 118.276 20.1516C118.588 19.6864 119.031 19.3243 119.549 19.111C120.067 18.8977 120.637 18.8429 121.186 18.9533C121.735 19.0638 122.239 19.3346 122.635 19.7316C123.03 20.1286 123.299 20.6338 123.407 21.1835C123.515 21.7332 123.458 22.3026 123.242 22.8198C123.027 23.3369 122.663 23.7785 122.196 24.0888C121.73 24.399 121.182 24.564 120.621 24.5628C119.87 24.561 119.151 24.261 118.621 23.7287C118.091 23.1964 117.794 22.4754 117.795 21.7243" fill="#499FDD"/>
<path d="M26.6126 20.4953C24.174 20.4953 22.4776 18.5585 22.4776 15.7889C22.4776 13.0193 24.174 11.0862 26.6141 11.0862C29.0662 11.0862 30.7806 13.0215 30.7806 15.7889C30.7806 18.602 29.1037 20.4953 26.6126 20.4953ZM26.6126 6.94973C21.4523 6.94973 17.7061 10.6675 17.7061 15.7874C17.7061 20.9073 21.4508 24.6251 26.6126 24.6251C31.7946 24.6251 35.5544 20.9088 35.5544 15.7874C35.5544 10.666 31.7946 6.94973 26.6149 6.94973H26.6126ZM67.6149 16.2323C67.4354 15.885 67.2086 15.5644 66.9409 15.2796L66.7828 15.1163L66.9483 14.9583C67.2091 14.6811 67.4472 14.3836 67.6606 14.0685L72.215 7.29874H66.6862L63.2635 12.5953C63.0703 12.8792 62.6793 13.0215 62.0936 13.0215H61.3147V3.00797C61.3147 1.00602 60.0662 0.733398 58.7188 0.733398H56.412L56.418 24.3674H61.3177V17.2748H61.7776C62.3363 17.2748 62.7145 17.34 62.8905 17.6441L65.5927 22.7452C66.3484 24.13 67.0996 24.3644 68.5137 24.3644H72.2674L69.4716 19.7464L67.6172 16.2345L67.6149 16.2323ZM91.401 6.91003C88.9077 6.91003 87.3177 8.01848 86.4264 8.95543L86.1268 9.25501L86.0205 8.84608C85.7598 7.84248 84.8761 7.292 83.5489 7.292H81.3538L81.3672 24.3607H86.2354V16.4967C86.2224 15.8028 86.3236 15.1115 86.535 14.4505C87.0758 12.6066 88.5864 11.4607 90.4745 11.4607C91.9934 11.4607 92.5873 12.2628 92.5873 14.3344V21.7685C92.5873 23.5361 93.4059 24.3622 95.175 24.3622H97.4915L97.4832 13.5023C97.4832 9.18985 95.3787 6.91153 91.3957 6.91153L91.401 6.91003ZM75.9875 7.29799H73.6867L73.7024 20.4953V24.3674H76.1627L76.2496 24.3719L77.397 24.3674H78.5377V24.3614H78.5452L78.5549 9.89237C78.5549 8.14656 77.7206 7.30024 75.995 7.30024L75.9875 7.29799ZM45.7252 20.4953C43.2866 20.4953 41.5887 18.5585 41.5887 15.7889C41.5887 13.0193 43.2866 11.0862 45.7275 11.0862C48.1683 11.0862 49.8961 13.0215 49.8961 15.7889C49.8961 18.602 48.2192 20.4953 45.7305 20.4953H45.7252ZM45.7252 6.94973C40.5574 6.94973 36.8126 10.6675 36.8126 15.7874C36.8126 20.9073 40.5574 24.6251 45.7252 24.6251C50.893 24.6251 54.6677 20.9088 54.6677 15.7874C54.6677 10.666 50.8997 6.94973 45.7252 6.94973Z" fill="#273B7D"/>
<path d="M150.027 20.4951C147.589 20.4951 145.888 18.5583 145.888 15.7886C145.888 13.019 147.589 11.0859 150.027 11.0859C152.477 11.0859 154.195 13.0212 154.195 15.7886C154.195 18.6017 152.519 20.4951 150.027 20.4951ZM150.027 6.94946C144.859 6.94946 141.114 10.6673 141.114 15.7871C141.114 20.907 144.859 24.6248 150.027 24.6248C155.203 24.6248 158.969 20.9085 158.969 15.7871C158.969 10.6658 155.201 6.94946 150.027 6.94946" fill="#499FDD"/>
<path d="M107.748 19.7461C105.087 19.7461 104.14 17.4243 104.14 15.2523C104.14 14.2937 104.383 11.1713 107.494 11.1713C109.038 11.1713 111.095 11.6132 111.095 15.4119C111.095 18.9919 109.275 19.7461 107.748 19.7461ZM113.622 7.25498C112.699 7.25498 111.989 7.62422 111.632 8.29678L111.498 8.55741L111.273 8.35969C110.488 7.68114 109.079 6.87451 106.793 6.87451C102.243 6.87451 99.1788 10.2927 99.1788 15.3766C99.1788 20.4606 102.349 24.0084 106.884 24.0084C108.432 24.0084 109.655 23.6459 110.629 22.9119L111.003 22.6295V23.1029C111.003 25.3834 109.53 26.6417 106.857 26.6417C105.739 26.6285 104.632 26.4243 103.583 26.038C102.553 25.7265 101.945 25.9848 101.529 27.0207L101.143 27.9756L100.597 29.3724L100.934 29.5514C102.646 30.4591 104.873 31.0013 106.885 31.0013C111.027 31.0013 115.869 28.8811 115.869 22.9126L115.886 7.25947H113.623" fill="#273B7D"/>
<path d="M8.49165 20.2997L4.53118 20.2959V15.5618C4.53118 14.5477 4.92363 14.0227 5.78942 13.9006H8.49165C10.4195 13.9006 11.6657 15.1162 11.668 17.0829C11.668 19.1051 10.4509 20.2982 8.49165 20.2982V20.2997ZM4.53118 7.52549V6.27848C4.53118 5.188 4.99253 4.66898 6.00437 4.60157H8.02955C9.76712 4.60157 10.8089 5.64112 10.8089 7.38319C10.8089 8.70884 10.0944 10.2577 8.09246 10.2577H4.53118V7.52549ZM13.5501 12.2514L12.8341 11.8492L13.4595 11.3145C14.1867 10.6891 15.4068 9.28254 15.4068 6.85667C15.4068 3.14036 12.5263 0.741455 8.067 0.741455H2.39441C1.75664 0.764497 1.1522 1.03209 0.706409 1.48876C0.260616 1.94543 0.00766461 2.55615 0 3.19428V24.2826H8.16361C13.1209 24.2826 16.3205 21.5864 16.3205 17.4042C16.3205 15.1573 15.2869 13.2303 13.5493 12.2514" fill="#273B7D"/>
<path d="M180.705 6.9668C179.7 6.9705 178.709 7.19992 177.805 7.63808C176.901 8.07625 176.107 8.71197 175.482 9.49826L175.13 9.94764L174.854 9.44808C173.951 7.80488 172.4 6.97054 170.244 6.97054C167.982 6.97054 166.465 8.23328 165.76 8.98298L165.299 9.48179L165.121 8.82495C164.865 7.87828 164.023 7.35925 162.748 7.35925H160.703L160.683 24.3605H165.327V16.8538C165.329 16.1834 165.412 15.5158 165.574 14.8653C166.017 13.0506 167.236 11.0995 169.286 11.295C170.548 11.4171 171.168 12.3937 171.168 14.2796V24.3598H175.847V16.8538C175.847 16.0299 175.922 15.4158 176.109 14.8001C176.484 13.0685 177.757 11.2928 179.735 11.2928C181.167 11.2928 181.696 12.1016 181.696 14.2796V21.874C181.696 23.5906 182.461 24.3598 184.179 24.3598H186.365L186.368 13.5044C186.368 9.16648 184.459 6.9668 180.703 6.9668H180.705ZM138.423 18.4558C138.408 18.473 136.41 20.5798 133.779 20.5798C131.382 20.5798 128.958 19.1081 128.958 15.8239C128.958 12.9876 130.836 11.0052 133.527 11.0052C134.399 11.0052 135.393 11.3167 135.549 11.8432L135.571 11.9324C135.67 12.2944 135.886 12.6136 136.185 12.8406C136.484 13.0677 136.849 13.1899 137.224 13.1884L139.771 13.1929V10.9677C139.771 8.03256 136.036 6.9668 133.525 6.9668C128.152 6.9668 124.254 10.7071 124.254 15.8599C124.254 21.0127 128.109 24.744 133.426 24.744C138.038 24.744 140.548 21.7122 140.571 21.683L140.705 21.5167L138.691 18.1734L138.424 18.4558" fill="#499FDD"/>
</g>
<defs>
<clipPath id="clip0_8_2">
<rect width="186.37" height="31" fill="white"/>
</clipPath>
</defs>
</svg>
